<svg xmlns="http://www.w3.org/2000/svg" width = "100%" height="100%" viewBox ="0 0 87 88">
<style>
.c0{ fill: rgb(255,255,255); stroke: rgb(255,255,255);}
.c1{ fill: rgb(250,191,0); stroke: rgb(250,191,0);}
.c2{ fill: rgb(251,202,40); stroke: rgb(251,202,40);}
.c3{ fill: rgb(252,211,77); stroke: rgb(252,211,77);}
.c4{ fill: rgb(252,217,102); stroke: rgb(252,217,102);}
.c5{ fill: rgb(253,225,133); stroke: rgb(253,225,133);}
.c6{ fill: rgb(254,232,163); stroke: rgb(254,232,163);}
.c7{ fill: rgb(254,238,187); stroke: rgb(254,238,187);}
.c8{ fill: rgb(255,246,218); stroke: rgb(255,246,218);}
.c9{ fill: rgb(51,126,141); stroke: rgb(51,126,141);}
.c10{ fill: rgb(63,134,148); stroke: rgb(63,134,148);}
.c11{ fill: rgb(76,142,155); stroke: rgb(76,142,155);}
.c12{ fill: rgb(95,154,166); stroke: rgb(95,154,166);}
.c13{ fill: rgb(108,162,173); stroke: rgb(108,162,173);}
.c14{ fill: rgb(117,168,178); stroke: rgb(117,168,178);}
.c15{ fill: rgb(127,174,184); stroke: rgb(127,174,184);}
.c16{ fill: rgb(139,182,190); stroke: rgb(139,182,190);}
.c17{ fill: rgb(152,190,198); stroke: rgb(152,190,198);}
.c18{ fill: rgb(163,197,204); stroke: rgb(163,197,204);}
.c19{ fill: rgb(177,206,212); stroke: rgb(177,206,212);}
.c20{ fill: rgb(187,212,217); stroke: rgb(187,212,217);}
.c21{ fill: rgb(199,220,224); stroke: rgb(199,220,224);}
.c22{ fill: rgb(219,232,235); stroke: rgb(219,232,235);}
.c23{ fill: rgb(229,239,241); stroke: rgb(229,239,241);}
.c24{ fill: rgb(243,247,248); stroke: rgb(243,247,248);}
</style>
<g transform="scale(0.1 0.1)" stroke-width="10">
<path d="M 5, 0c 207,0 413,0 620,0c 70,0 231,-9 240,0c 6,6 0,349 0,500c 0,51 13,369 -5,375c -32,11 -459,0 -530,0c -108,0 -326,4 -330,0c -9,-9 0,-170 0,-240c 0,-210 0,-420 0,-630z" class="c0"/>
<path d="M 65, 260c -2,2 -3,3 -5,5z" class="c24"/>
<path d="M 65, 270c 0,97 0,193 0,290c 0,4 -2,48 -5,45c -4,-4 0,-222 0,-330z" class="c23"/>
<path d="M 65, 610c -2,2 -3,3 -5,5z" class="c24"/>
<path d="M 75, 230c -2,2 -3,3 -5,5z" class="c22"/>
<path d="M 75, 240c -2,2 -3,3 -5,5z" class="c16"/>
<path d="M 75, 250c -2,2 -3,3 -5,5z" class="c11"/>
<path d="M 75, 260c 11,-22 0,-20 10,-5c 11,16 27,16 40,25c 17,11 28,39 45,50c 7,5 17,2 25,10c 8,8 16,24 25,30c 7,5 17,2 25,10c 10,10 18,27 30,35c 6,4 14,1 20,5c 17,11 28,39 45,50c 6,4 19,1 25,10c 2,3 1,27 0,30c -3,10 -52,68 -60,80c -5,7 -5,28 -10,35c -10,15 -25,26 -35,40c -4,6 -1,14 -5,20c -3,5 -12,5 -15,10c -4,6 0,15 -5,20c -1,1 -32,12 -35,10c -11,-7 -23,-22 -35,-30c -24,-16 -64,-19 -85,-50c -17,-25 -10,-320 -10,-375z" class="c9"/>
<path d="M 75, 620c -2,2 -3,3 -5,5z" class="c11"/>
<path d="M 75, 630c -2,2 -3,3 -5,5z" class="c15"/>
<path d="M 75, 640c -2,2 -3,3 -5,5z" class="c22"/>
<path d="M 85, 220c -2,2 -3,3 -5,5z" class="c19"/>
<path d="M 85, 230c -2,2 -3,3 -5,5z" class="c12"/>
<path d="M 85, 650c -2,2 -3,3 -5,5z" class="c16"/>
<path d="M 95, 210c -2,2 -3,3 -5,5z" class="c24"/>
<path d="M 95, 240c -2,2 -3,3 -5,5z" class="c22"/>
<path d="M 95, 250c 9,18 13,14 -5,5z" class="c11"/>
<path d="M 95, 660c -2,2 -3,3 -5,5z" class="c13"/>
<path d="M 105, 200c 6,-13 13,-13 -5,5z" class="c8"/>
<path d="M 105, 210c -2,2 -3,3 -5,5z" class="c5"/>
<path d="M 105, 220c -2,2 -3,3 -5,5z" class="c6"/>
<path d="M 105, 250c -2,2 -3,3 -5,5z" class="c24"/>
<path d="M 105, 670c -2,2 -3,3 -5,5z" class="c17"/>
<path d="M 115, 200c -2,2 -3,3 -5,5z" class="c2"/>
<path d="M 115, 210c 12,-23 36,-23 55,-35c 5,-3 5,-12 10,-15c 7,-5 28,-5 35,-10c 6,-4 11,-17 20,-20c 32,-11 58,-32 85,-50c 7,-5 28,-5 35,-10c 12,-8 24,-23 35,-30c 11,-8 61,-19 75,-10c 3,2 2,8 5,10c 8,5 55,23 65,30c 3,2 2,8 5,10c 14,10 70,29 75,45c 6,18 -40,28 -50,35c -5,3 -5,12 -10,15c -7,5 -28,5 -35,10c -11,7 -23,22 -35,30c -19,12 -41,13 -60,25c -5,3 -5,12 -10,15c -19,12 -41,13 -60,25c -5,3 -5,12 -10,15c -16,10 -54,14 -65,30c -4,6 -1,14 -5,20c -2,3 -9,1 -10,5c -2,6 14,11 10,15c -4,4 -22,-23 -25,-25c -6,-4 -14,-1 -20,-5c -3,-2 -109,-104 -120,-115z" class="c1"/>
<path d="M 115, 230c 18,36 31,23 -5,5z" class="c2"/>
<path d="M 115, 240c 9,18 13,14 -5,5z" class="c8"/>
<path d="M 115, 260c -2,2 -3,3 -5,5z" class="c22"/>
<path d="M 115, 270c -2,2 -3,3 -5,5z" class="c10"/>
<path d="M 115, 680c -2,2 -3,3 -5,5z" class="c22"/>
<path d="M 125, 190c -2,2 -3,3 -5,5z" class="c3"/>
<path d="M 125, 270c -2,2 -3,3 -5,5z" class="c21"/>
<path d="M 125, 680c -2,2 -3,3 -5,5z" class="c13"/>
<path d="M 135, 180c -2,2 -3,3 -5,5z" class="c7"/>
<path d="M 135, 280c -2,2 -3,3 -5,5z" class="c18"/>
<path d="M 135, 690c -2,2 -3,3 -5,5z" class="c20"/>
<path d="M 145, 180c -2,2 -3,3 -5,5z" class="c2"/>
<path d="M 145, 260c -2,2 -3,3 -5,5z" class="c3"/>
<path d="M 145, 290c -2,2 -3,3 -5,5z" class="c15"/>
<path d="M 145, 690c -2,2 -3,3 -5,5z" class="c11"/>
<path d="M 155, 170c -2,2 -3,3 -5,5z" class="c6"/>
<path d="M 155, 270c -2,2 -3,3 -5,5z" class="c5"/>
<path d="M 155, 300c -2,2 -3,3 -5,5z" class="c12"/>
<path d="M 155, 700c -2,2 -3,3 -5,5z" class="c18"/>
<path d="M 165, 170c -2,2 -3,3 -5,5z" class="c2"/>
<path d="M 165, 280c -2,2 -3,3 -5,5z" class="c7"/>
<path d="M 165, 300c -2,2 -3,3 -5,5z" class="c24"/>
<path d="M 165, 310c -2,2 -3,3 -5,5z" class="c11"/>
<path d="M 165, 700c -2,2 -3,3 -5,5z" class="c10"/>
<path d="M 165, 710c -2,2 -3,3 -5,5z" class="c23"/>
<path d="M 175, 160c -2,2 -3,3 -5,5z" class="c4"/>
<path d="M 175, 290c 9,18 13,14 -5,5z" class="c8"/>
<path d="M 175, 310c -2,2 -3,3 -5,5z" class="c22"/>
<path d="M 175, 320c -2,2 -3,3 -5,5z" class="c10"/>
<path d="M 175, 710c -2,2 -3,3 -5,5z" class="c15"/>
<path d="M 185, 150c -2,2 -3,3 -5,5z" class="c8"/>
<path d="M 185, 290c -2,2 -3,3 -5,5z" class="c2"/>
<path d="M 185, 320c -2,2 -3,3 -5,5z" class="c20"/>
<path d="M 185, 720c -2,2 -3,3 -5,5z" class="c22"/>
<path d="M 195, 150c -2,2 -3,3 -5,5z" class="c3"/>
<path d="M 195, 300c -2,2 -3,3 -5,5z" class="c3"/>
<path d="M 195, 330c -2,2 -3,3 -5,5z" class="c17"/>
<path d="M 195, 720c -2,2 -3,3 -5,5z" class="c12"/>
<path d="M 205, 140c -2,2 -3,3 -5,5z" class="c7"/>
<path d="M 205, 310c -2,2 -3,3 -5,5z" class="c4"/>
<path d="M 205, 340c -2,2 -3,3 -5,5z" class="c14"/>
<path d="M 205, 730c -2,2 -3,3 -5,5z" class="c22"/>
<path d="M 215, 140c -2,2 -3,3 -5,5z" class="c2"/>
<path d="M 215, 320c -2,2 -3,3 -5,5z" class="c5"/>
<path d="M 215, 340c -2,2 -3,3 -5,5z" class="c24"/>
<path d="M 215, 350c -2,2 -3,3 -5,5z" class="c12"/>
<path d="M 215, 730c -2,2 -3,3 -5,5z" class="c21"/>
<path d="M 225, 130c -2,2 -3,3 -5,5z" class="c5"/>
<path d="M 225, 330c -2,2 -3,3 -5,5z" class="c7"/>
<path d="M 225, 350c -2,2 -3,3 -5,5z" class="c23"/>
<path d="M 225, 360c -2,2 -3,3 -5,5z" class="c10"/>
<path d="M 225, 720c -2,2 -3,3 -5,5z" class="c10"/>
<path d="M 225, 730c -2,2 -3,3 -5,5z" class="c24"/>
<path d="M 235, 340c -2,2 -3,3 -5,5z" class="c8"/>
<path d="M 235, 360c -2,2 -3,3 -5,5z" class="c21"/>
<path d="M 235, 720c -2,2 -3,3 -5,5z" class="c19"/>
<path d="M 245, 120c -2,2 -3,3 -5,5z" class="c4"/>
<path d="M 245, 340c -2,2 -3,3 -5,5z" class="c2"/>
<path d="M 245, 370c -2,2 -3,3 -5,5z" class="c19"/>
<path d="M 245, 700c -2,2 -3,3 -5,5z" class="c11"/>
<path d="M 245, 710c -2,2 -3,3 -5,5z" class="c21"/>
<path d="M 255, 110c -2,2 -3,3 -5,5z" class="c8"/>
<path d="M 255, 350c -2,2 -3,3 -5,5z" class="c3"/>
<path d="M 255, 380c -2,2 -3,3 -5,5z" class="c16"/>
<path d="M 255, 690c -2,2 -3,3 -5,5z" class="c16"/>
<path d="M 255, 700c -2,2 -3,3 -5,5z" class="c24"/>
<path d="M 255, 740c 6,-13 13,-13 -5,5z" class="c17"/>
<path d="M 255, 750c -2,2 -3,3 -5,5z" class="c15"/>
<path d="M 255, 760c -2,2 -3,3 -5,5z" class="c24"/>
<path d="M 265, 110c -2,2 -3,3 -5,5z" class="c3"/>
<path d="M 265, 360c -2,2 -3,3 -5,5z" class="c4"/>
<path d="M 265, 390c -2,2 -3,3 -5,5z" class="c13"/>
<path d="M 265, 670c -2,2 -3,3 -5,5z" class="c11"/>
<path d="M 265, 680c -2,2 -3,3 -5,5z" class="c22"/>
<path d="M 265, 740c 14,0 34,-23 45,-30c 21,-14 70,-32 90,-45c 5,-3 5,-12 10,-15c 7,-5 28,-5 35,-10c 11,-7 23,-22 35,-30c 19,-12 41,-13 60,-25c 3,-2 7,-13 10,-15c 7,-5 28,-5 35,-10c 4,-3 27,-33 25,-40c -1,-4 -8,-2 -10,-5c -1,-2 3,-6 5,-5c 11,5 19,28 30,35c 9,6 33,18 40,25c 10,10 18,27 30,35c 6,4 14,1 20,5c 8,5 42,43 40,50c -9,26 -106,64 -130,80c -5,3 -5,12 -10,15c -7,5 -28,5 -35,10c -11,7 -23,22 -35,30c -19,12 -41,13 -60,25c -3,2 -7,13 -10,15c -11,8 -61,19 -75,10c -3,-2 -2,-8 -5,-10c -8,-5 -55,-23 -65,-30c -3,-2 -2,-8 -5,-10c -25,-16 -53,-23 -75,-45z" class="c9"/>
<path d="M 265, 760c -2,2 -3,3 -5,5z" class="c13"/>
<path d="M 275, 100c -2,2 -3,3 -5,5z" class="c7"/>
<path d="M 275, 350c -2,2 -3,3 -5,5z" class="c2"/>
<path d="M 275, 370c -2,2 -3,3 -5,5z" class="c6"/>
<path d="M 275, 390c -2,2 -3,3 -5,5z" class="c24"/>
<path d="M 275, 400c -2,2 -3,3 -5,5z" class="c11"/>
<path d="M 275, 660c -2,2 -3,3 -5,5z" class="c17"/>
<path d="M 275, 720c -2,2 -3,3 -5,5z" class="c23"/>
<path d="M 275, 730c -2,2 -3,3 -5,5z" class="c10"/>
<path d="M 275, 770c -2,2 -3,3 -5,5z" class="c20"/>
<path d="M 285, 100c -2,2 -3,3 -5,5z" class="c2"/>
<path d="M 285, 330c 6,-13 13,-13 -5,5z" class="c2"/>
<path d="M 285, 340c 6,-13 13,-13 -5,5z" class="c8"/>
<path d="M 285, 370c -2,2 -3,3 -5,5z" class="c7"/>
<path d="M 285, 380c -2,2 -3,3 -5,5z" class="c8"/>
<path d="M 285, 400c -2,2 -3,3 -5,5z" class="c23"/>
<path d="M 285, 410c -2,2 -3,3 -5,5z" class="c10"/>
<path d="M 285, 640c -2,2 -3,3 -5,5z" class="c12"/>
<path d="M 285, 650c -2,2 -3,3 -5,5z" class="c22"/>
<path d="M 285, 720c -2,2 -3,3 -5,5z" class="c14"/>
<path d="M 285, 770c -2,2 -3,3 -5,5z" class="c11"/>
<path d="M 285, 780c -2,2 -3,3 -5,5z" class="c24"/>
<path d="M 295, 90c -2,2 -3,3 -5,5z" class="c5"/>
<path d="M 295, 410c -2,2 -3,3 -5,5z" class="c21"/>
<path d="M 295, 630c -2,2 -3,3 -5,5z" class="c17"/>
<path d="M 295, 710c -2,2 -3,3 -5,5z" class="c21"/>
<path d="M 295, 780c -2,2 -3,3 -5,5z" class="c17"/>
<path d="M 305, 80c -2,2 -3,3 -5,5z" class="c8"/>
<path d="M 305, 320c -2,2 -3,3 -5,5z" class="c6"/>
<path d="M 305, 420c -2,2 -3,3 -5,5z" class="c18"/>
<path d="M 305, 610c -2,2 -3,3 -5,5z" class="c12"/>
<path d="M 305, 620c -2,2 -3,3 -5,5z" class="c22"/>
<path d="M 305, 710c -2,2 -3,3 -5,5z" class="c12"/>
<path d="M 305, 780c -2,2 -3,3 -5,5z" class="c10"/>
<path d="M 305, 790c -2,2 -3,3 -5,5z" class="c23"/>
<path d="M 315, 80c -2,2 -3,3 -5,5z" class="c4"/>
<path d="M 315, 310c -2,2 -3,3 -5,5z" class="c3"/>
<path d="M 315, 430c -2,2 -3,3 -5,5z" class="c15"/>
<path d="M 315, 590c -2,2 -3,3 -5,5z" class="c10"/>
<path d="M 315, 600c -2,2 -3,3 -5,5z" class="c18"/>
<path d="M 315, 700c -2,2 -3,3 -5,5z" class="c19"/>
<path d="M 315, 790c -2,2 -3,3 -5,5z" class="c15"/>
<path d="M 325, 70c -2,2 -3,3 -5,5z" class="c8"/>
<path d="M 325, 310c -2,2 -3,3 -5,5z" class="c8"/>
<path d="M 325, 440c -2,2 -3,3 -5,5z" class="c12"/>
<path d="M 325, 580c -2,2 -3,3 -5,5z" class="c12"/>
<path d="M 325, 590c -2,2 -3,3 -5,5z" class="c23"/>
<path d="M 325, 690c -2,2 -3,3 -5,5z" class="c24"/>
<path d="M 325, 700c -2,2 -3,3 -5,5z" class="c11"/>
<path d="M 325, 800c -2,2 -3,3 -5,5z" class="c22"/>
<path d="M 335, 70c -2,2 -3,3 -5,5z" class="c3"/>
<path d="M 335, 300c -2,2 -3,3 -5,5z" class="c4"/>
<path d="M 335, 440c -2,2 -3,3 -5,5z" class="c24"/>
<path d="M 335, 450c -2,2 -3,3 -5,5z" class="c11"/>
<path d="M 335, 560c -2,2 -3,3 -5,5z" class="c10"/>
<path d="M 335, 570c -2,2 -3,3 -5,5z" class="c18"/>
<path d="M 335, 690c -2,2 -3,3 -5,5z" class="c17"/>
<path d="M 335, 800c -2,2 -3,3 -5,5z" class="c12"/>
<path d="M 345, 60c -2,2 -3,3 -5,5z" class="c6"/>
<path d="M 345, 300c -2,2 -3,3 -5,5z" class="c8"/>
<path d="M 345, 450c -2,2 -3,3 -5,5z" class="c22"/>
<path d="M 345, 460c -2,2 -3,3 -5,5z" class="c10"/>
<path d="M 345, 550c -2,2 -3,3 -5,5z" class="c13"/>
<path d="M 345, 560c -2,2 -3,3 -5,5z" class="c23"/>
<path d="M 345, 680c -2,2 -3,3 -5,5z" class="c23"/>
<path d="M 345, 810c -2,2 -3,3 -5,5z" class="c19"/>
<path d="M 355, 60c -2,2 -3,3 -5,5z" class="c2"/>
<path d="M 355, 290c -2,2 -3,3 -5,5z" class="c5"/>
<path d="M 355, 460c -2,2 -3,3 -5,5z" class="c20"/>
<path d="M 355, 530c -2,2 -3,3 -5,5z" class="c10"/>
<path d="M 355, 540c -2,2 -3,3 -5,5z" class="c19"/>
<path d="M 355, 680c -2,2 -3,3 -5,5z" class="c14"/>
<path d="M 355, 810c -2,2 -3,3 -5,5z" class="c11"/>
<path d="M 355, 820c -2,2 -3,3 -5,5z" class="c24"/>
<path d="M 365, 50c -2,2 -3,3 -5,5z" class="c5"/>
<path d="M 365, 280c -2,2 -3,3 -5,5z" class="c2"/>
<path d="M 365, 470c -2,2 -3,3 -5,5z" class="c18"/>
<path d="M 365, 520c -2,2 -3,3 -5,5z" class="c14"/>
<path d="M 365, 530c -2,2 -3,3 -5,5z" class="c23"/>
<path d="M 365, 670c -2,2 -3,3 -5,5z" class="c21"/>
<path d="M 365, 820c -2,2 -3,3 -5,5z" class="c17"/>
<path d="M 375, 40c -2,2 -3,3 -5,5z" class="c8"/>
<path d="M 375, 280c -2,2 -3,3 -5,5z" class="c6"/>
<path d="M 375, 480c -2,2 -3,3 -5,5z" class="c21"/>
<path d="M 375, 490c -2,2 -3,3 -5,5z" class="c16"/>
<path d="M 375, 500c -2,2 -3,3 -5,5z" class="c15"/>
<path d="M 375, 510c -2,2 -3,3 -5,5z" class="c21"/>
<path d="M 375, 670c -2,2 -3,3 -5,5z" class="c12"/>
<path d="M 375, 830c -2,2 -3,3 -5,5z" class="c23"/>
<path d="M 385, 40c -2,2 -3,3 -5,5z" class="c4"/>
<path d="M 385, 270c -2,2 -3,3 -5,5z" class="c3"/>
<path d="M 385, 660c -2,2 -3,3 -5,5z" class="c19"/>
<path d="M 385, 830c -2,2 -3,3 -5,5z" class="c14"/>
<path d="M 395, 30c -2,2 -3,3 -5,5z" class="c7"/>
<path d="M 395, 270c -2,2 -3,3 -5,5z" class="c8"/>
<path d="M 395, 650c -2,2 -3,3 -5,5z" class="c24"/>
<path d="M 395, 660c -2,2 -3,3 -5,5z" class="c10"/>
<path d="M 395, 840c -2,2 -3,3 -5,5z" class="c21"/>
<path d="M 405, 30c -2,2 -3,3 -5,5z" class="c3"/>
<path d="M 405, 260c -2,2 -3,3 -5,5z" class="c4"/>
<path d="M 405, 650c -2,2 -3,3 -5,5z" class="c16"/>
<path d="M 405, 840c -2,2 -3,3 -5,5z" class="c13"/>
<path d="M 415, 20c -2,2 -3,3 -5,5z" class="c8"/>
<path d="M 415, 260c -2,2 -3,3 -5,5z" class="c8"/>
<path d="M 415, 640c -2,2 -3,3 -5,5z" class="c23"/>
<path d="M 415, 850c -2,2 -3,3 -5,5z" class="c22"/>
<path d="M 425, 20c -2,2 -3,3 -5,5z" class="c6"/>
<path d="M 425, 250c -2,2 -3,3 -5,5z" class="c5"/>
<path d="M 425, 640c -2,2 -3,3 -5,5z" class="c13"/>
<path d="M 425, 850c -2,2 -3,3 -5,5z" class="c19"/>
<path d="M 435, 20c 23,0 1,5 -5,5z" class="c5"/>
<path d="M 435, 240c -2,2 -3,3 -5,5z" class="c2"/>
<path d="M 435, 630c -2,2 -3,3 -5,5z" class="c21"/>
<path d="M 435, 850c 23,0 1,5 -5,5z" class="c17"/>
<path d="M 445, 240c -2,2 -3,3 -5,5z" class="c7"/>
<path d="M 445, 630c -2,2 -3,3 -5,5z" class="c11"/>
<path d="M 455, 20c -2,2 -3,3 -5,5z" class="c6"/>
<path d="M 455, 230c -2,2 -3,3 -5,5z" class="c3"/>
<path d="M 455, 620c -2,2 -3,3 -5,5z" class="c18"/>
<path d="M 455, 850c -2,2 -3,3 -5,5z" class="c19"/>
<path d="M 465, 20c -2,2 -3,3 -5,5z" class="c8"/>
<path d="M 465, 230c -2,2 -3,3 -5,5z" class="c8"/>
<path d="M 465, 610c -2,2 -3,3 -5,5z" class="c24"/>
<path d="M 465, 620c -2,2 -3,3 -5,5z" class="c10"/>
<path d="M 465, 850c -2,2 -3,3 -5,5z" class="c23"/>
<path d="M 475, 30c -2,2 -3,3 -5,5z" class="c3"/>
<path d="M 475, 220c -2,2 -3,3 -5,5z" class="c4"/>
<path d="M 475, 610c -2,2 -3,3 -5,5z" class="c16"/>
<path d="M 475, 840c -2,2 -3,3 -5,5z" class="c13"/>
<path d="M 485, 30c -2,2 -3,3 -5,5z" class="c8"/>
<path d="M 485, 600c -2,2 -3,3 -5,5z" class="c22"/>
<path d="M 485, 840c -2,2 -3,3 -5,5z" class="c21"/>
<path d="M 495, 40c -2,2 -3,3 -5,5z" class="c4"/>
<path d="M 495, 210c -2,2 -3,3 -5,5z" class="c5"/>
<path d="M 495, 600c -2,2 -3,3 -5,5z" class="c13"/>
<path d="M 495, 830c -2,2 -3,3 -5,5z" class="c14"/>
<path d="M 505, 200c -2,2 -3,3 -5,5z" class="c2"/>
<path d="M 505, 360c -2,2 -3,3 -5,5z" class="c20"/>
<path d="M 505, 370c 0,6 -5,28 -5,5z" class="c14"/>
<path d="M 505, 390c -2,2 -3,3 -5,5z" class="c20"/>
<path d="M 505, 590c -2,2 -3,3 -5,5z" class="c21"/>
<path d="M 505, 820c -2,2 -3,3 -5,5z" class="c10"/>
<path d="M 505, 830c -2,2 -3,3 -5,5z" class="c23"/>
<path d="M 515, 50c -2,2 -3,3 -5,5z" class="c5"/>
<path d="M 515, 200c -2,2 -3,3 -5,5z" class="c7"/>
<path d="M 515, 340c -2,2 -3,3 -5,5z" class="c23"/>
<path d="M 515, 350c -2,2 -3,3 -5,5z" class="c13"/>
<path d="M 515, 360c 14,-28 38,-49 55,-75c 5,-7 5,-28 10,-35c 10,-15 25,-26 35,-40c 4,-6 1,-14 5,-20c 3,-5 12,-5 15,-10c 4,-6 0,-15 5,-20c 6,-6 16,-7 25,-10c 8,-3 39,26 45,30c 7,5 28,5 35,10c 5,3 5,12 10,15c 13,9 30,11 40,25c 4,6 -2,23 0,30c 18,72 -5,-31 10,15c 11,32 0,113 0,150c 0,24 7,169 0,180c -2,3 -8,2 -10,5c -4,6 2,14 0,20c -5,15 -7,-11 -10,-15c -7,-11 -18,-5 -25,-10c -17,-11 -28,-39 -45,-50c -7,-5 -17,-2 -25,-10c -10,-10 -18,-27 -30,-35c -6,-4 -14,-1 -20,-5c -11,-7 -18,-27 -30,-35c -6,-4 -14,-1 -20,-5c -17,-11 -28,-39 -45,-50c -7,-5 -17,-2 -25,-10c -10,-10 -10,-22 -10,-35z" class="c9"/>
<path d="M 515, 400c -2,2 -3,3 -5,5z" class="c16"/>
<path d="M 515, 590c -2,2 -3,3 -5,5z" class="c11"/>
<path d="M 515, 820c -2,2 -3,3 -5,5z" class="c17"/>
<path d="M 525, 60c -2,2 -3,3 -5,5z" class="c2"/>
<path d="M 525, 190c -2,2 -3,3 -5,5z" class="c3"/>
<path d="M 525, 330c -2,2 -3,3 -5,5z" class="c19"/>
<path d="M 525, 340c -2,2 -3,3 -5,5z" class="c10"/>
<path d="M 525, 410c -2,2 -3,3 -5,5z" class="c18"/>
<path d="M 525, 580c -2,2 -3,3 -5,5z" class="c18"/>
<path d="M 525, 810c -2,2 -3,3 -5,5z" class="c11"/>
<path d="M 525, 820c -2,2 -3,3 -5,5z" class="c24"/>
<path d="M 535, 60c -2,2 -3,3 -5,5z" class="c7"/>
<path d="M 535, 190c -2,2 -3,3 -5,5z" class="c8"/>
<path d="M 535, 310c -2,2 -3,3 -5,5z" class="c23"/>
<path d="M 535, 320c -2,2 -3,3 -5,5z" class="c13"/>
<path d="M 535, 420c -2,2 -3,3 -5,5z" class="c21"/>
<path d="M 535, 570c -2,2 -3,3 -5,5z" class="c24"/>
<path d="M 535, 580c -2,2 -3,3 -5,5z" class="c10"/>
<path d="M 535, 810c -2,2 -3,3 -5,5z" class="c20"/>
<path d="M 545, 70c -2,2 -3,3 -5,5z" class="c3"/>
<path d="M 545, 180c -2,2 -3,3 -5,5z" class="c4"/>
<path d="M 545, 300c -2,2 -3,3 -5,5z" class="c18"/>
<path d="M 545, 310c -2,2 -3,3 -5,5z" class="c10"/>
<path d="M 545, 420c -2,2 -3,3 -5,5z" class="c10"/>
<path d="M 545, 430c -2,2 -3,3 -5,5z" class="c23"/>
<path d="M 545, 570c -2,2 -3,3 -5,5z" class="c16"/>
<path d="M 545, 800c -2,2 -3,3 -5,5z" class="c12"/>
<path d="M 555, 70c -2,2 -3,3 -5,5z" class="c8"/>
<path d="M 555, 280c -2,2 -3,3 -5,5z" class="c22"/>
<path d="M 555, 290c -2,2 -3,3 -5,5z" class="c12"/>
<path d="M 555, 430c -2,2 -3,3 -5,5z" class="c11"/>
<path d="M 555, 440c -2,2 -3,3 -5,5z" class="c24"/>
<path d="M 555, 560c -2,2 -3,3 -5,5z" class="c22"/>
<path d="M 555, 800c -2,2 -3,3 -5,5z" class="c22"/>
<path d="M 565, 80c -2,2 -3,3 -5,5z" class="c4"/>
<path d="M 565, 170c -2,2 -3,3 -5,5z" class="c6"/>
<path d="M 565, 270c -2,2 -3,3 -5,5z" class="c17"/>
<path d="M 565, 280c -2,2 -3,3 -5,5z" class="c10"/>
<path d="M 565, 440c -2,2 -3,3 -5,5z" class="c13"/>
<path d="M 565, 560c -2,2 -3,3 -5,5z" class="c13"/>
<path d="M 565, 790c -2,2 -3,3 -5,5z" class="c15"/>
<path d="M 575, 90c -2,2 -3,3 -5,5z" class="c2"/>
<path d="M 575, 160c -2,2 -3,3 -5,5z" class="c2"/>
<path d="M 575, 250c -2,2 -3,3 -5,5z" class="c22"/>
<path d="M 575, 260c -2,2 -3,3 -5,5z" class="c12"/>
<path d="M 575, 450c -2,2 -3,3 -5,5z" class="c16"/>
<path d="M 575, 550c -2,2 -3,3 -5,5z" class="c21"/>
<path d="M 575, 780c -2,2 -3,3 -5,5z" class="c10"/>
<path d="M 575, 790c -2,2 -3,3 -5,5z" class="c23"/>
<path d="M 585, 90c -2,2 -3,3 -5,5z" class="c6"/>
<path d="M 585, 160c -2,2 -3,3 -5,5z" class="c7"/>
<path d="M 585, 240c -2,2 -3,3 -5,5z" class="c17"/>
<path d="M 585, 460c -2,2 -3,3 -5,5z" class="c19"/>
<path d="M 585, 540c -2,2 -3,3 -5,5z" class="c24"/>
<path d="M 585, 550c -2,2 -3,3 -5,5z" class="c11"/>
<path d="M 585, 780c -2,2 -3,3 -5,5z" class="c18"/>
<path d="M 595, 100c -2,2 -3,3 -5,5z" class="c2"/>
<path d="M 595, 150c -2,2 -3,3 -5,5z" class="c3"/>
<path d="M 595, 220c -2,2 -3,3 -5,5z" class="c22"/>
<path d="M 595, 230c -2,2 -3,3 -5,5z" class="c11"/>
<path d="M 595, 470c -2,2 -3,3 -5,5z" class="c21"/>
<path d="M 595, 490c -2,2 -3,3 -5,5z" class="c24"/>
<path d="M 595, 500c 23,0 1,5 -5,5z" class="c21"/>
<path d="M 595, 530c -2,2 -3,3 -5,5z" class="c21"/>
<path d="M 595, 540c -2,2 -3,3 -5,5z" class="c12"/>
<path d="M 595, 770c -2,2 -3,3 -5,5z" class="c11"/>
<path d="M 605, 100c -2,2 -3,3 -5,5z" class="c7"/>
<path d="M 605, 150c -2,2 -3,3 -5,5z" class="c8"/>
<path d="M 605, 200c -2,2 -3,3 -5,5z" class="c24"/>
<path d="M 605, 210c -2,2 -3,3 -5,5z" class="c16"/>
<path d="M 605, 470c -2,2 -3,3 -5,5z" class="c10"/>
<path d="M 605, 480c -2,2 -3,3 -5,5z" class="c23"/>
<path d="M 605, 520c -2,2 -3,3 -5,5z" class="c10"/>
<path d="M 605, 770c -2,2 -3,3 -5,5z" class="c20"/>
<path d="M 615, 110c -2,2 -3,3 -5,5z" class="c3"/>
<path d="M 615, 140c -2,2 -3,3 -5,5z" class="c4"/>
<path d="M 615, 190c -2,2 -3,3 -5,5z" class="c21"/>
<path d="M 615, 200c -2,2 -3,3 -5,5z" class="c11"/>
<path d="M 615, 480c -2,2 -3,3 -5,5z" class="c12"/>
<path d="M 615, 490c -2,2 -3,3 -5,5z" class="c24"/>
<path d="M 615, 510c -2,2 -3,3 -5,5z" class="c18"/>
<path d="M 615, 760c -2,2 -3,3 -5,5z" class="c13"/>
<path d="M 625, 120c 0,6 -5,28 -5,5z" class="c5"/>
<path d="M 625, 170c -2,2 -3,3 -5,5z" class="c24"/>
<path d="M 625, 180c -2,2 -3,3 -5,5z" class="c16"/>
<path d="M 625, 490c -2,2 -3,3 -5,5z" class="c14"/>
<path d="M 625, 520c -2,2 -3,3 -5,5z" class="c15"/>
<path d="M 625, 760c -2,2 -3,3 -5,5z" class="c22"/>
<path d="M 635, 160c -2,2 -3,3 -5,5z" class="c21"/>
<path d="M 635, 170c -2,2 -3,3 -5,5z" class="c11"/>
<path d="M 635, 500c -2,2 -3,3 -5,5z" class="c17"/>
<path d="M 635, 530c -2,2 -3,3 -5,5z" class="c12"/>
<path d="M 635, 750c -2,2 -3,3 -5,5z" class="c16"/>
<path d="M 645, 150c -2,2 -3,3 -5,5z" class="c19"/>
<path d="M 645, 510c -2,2 -3,3 -5,5z" class="c20"/>
<path d="M 645, 530c -2,2 -3,3 -5,5z" class="c24"/>
<path d="M 645, 540c -2,2 -3,3 -5,5z" class="c11"/>
<path d="M 645, 740c -2,2 -3,3 -5,5z" class="c10"/>
<path d="M 645, 750c -2,2 -3,3 -5,5z" class="c24"/>
<path d="M 655, 140c -2,2 -3,3 -5,5z" class="c24"/>
<path d="M 655, 150c -2,2 -3,3 -5,5z" class="c10"/>
<path d="M 655, 510c -2,2 -3,3 -5,5z" class="c10"/>
<path d="M 655, 520c -2,2 -3,3 -5,5z" class="c22"/>
<path d="M 655, 540c -2,2 -3,3 -5,5z" class="c22"/>
<path d="M 655, 550c -2,2 -3,3 -5,5z" class="c10"/>
<path d="M 655, 740c -2,2 -3,3 -5,5z" class="c18"/>
<path d="M 665, 140c -2,2 -3,3 -5,5z" class="c22"/>
<path d="M 665, 520c -2,2 -3,3 -5,5z" class="c11"/>
<path d="M 665, 530c -2,2 -3,3 -5,5z" class="c24"/>
<path d="M 665, 550c -2,2 -3,3 -5,5z" class="c20"/>
<path d="M 665, 730c -2,2 -3,3 -5,5z" class="c11"/>
<path d="M 675, 140c -2,2 -3,3 -5,5z" class="c24"/>
<path d="M 675, 530c -2,2 -3,3 -5,5z" class="c12"/>
<path d="M 675, 560c -2,2 -3,3 -5,5z" class="c17"/>
<path d="M 675, 730c -2,2 -3,3 -5,5z" class="c21"/>
<path d="M 685, 150c -2,2 -3,3 -5,5z" class="c14"/>
<path d="M 685, 540c -2,2 -3,3 -5,5z" class="c15"/>
<path d="M 685, 570c -2,2 -3,3 -5,5z" class="c14"/>
<path d="M 685, 720c -2,2 -3,3 -5,5z" class="c13"/>
<path d="M 695, 150c -2,2 -3,3 -5,5z" class="c23"/>
<path d="M 695, 160c -2,2 -3,3 -5,5z" class="c10"/>
<path d="M 695, 550c -2,2 -3,3 -5,5z" class="c18"/>
<path d="M 695, 570c -2,2 -3,3 -5,5z" class="c24"/>
<path d="M 695, 580c -2,2 -3,3 -5,5z" class="c12"/>
<path d="M 695, 720c -2,2 -3,3 -5,5z" class="c22"/>
<path d="M 705, 160c -2,2 -3,3 -5,5z" class="c17"/>
<path d="M 705, 560c -2,2 -3,3 -5,5z" class="c21"/>
<path d="M 705, 580c -2,2 -3,3 -5,5z" class="c23"/>
<path d="M 705, 590c -2,2 -3,3 -5,5z" class="c11"/>
<path d="M 705, 710c -2,2 -3,3 -5,5z" class="c16"/>
<path d="M 715, 160c -2,2 -3,3 -5,5z" class="c24"/>
<path d="M 715, 170c -2,2 -3,3 -5,5z" class="c11"/>
<path d="M 715, 560c -2,2 -3,3 -5,5z" class="c10"/>
<path d="M 715, 570c -2,2 -3,3 -5,5z" class="c22"/>
<path d="M 715, 590c -2,2 -3,3 -5,5z" class="c22"/>
<path d="M 715, 600c -2,2 -3,3 -5,5z" class="c10"/>
<path d="M 715, 700c -2,2 -3,3 -5,5z" class="c10"/>
<path d="M 715, 710c -2,2 -3,3 -5,5z" class="c24"/>
<path d="M 725, 170c -2,2 -3,3 -5,5z" class="c19"/>
<path d="M 725, 570c -2,2 -3,3 -5,5z" class="c11"/>
<path d="M 725, 580c -2,2 -3,3 -5,5z" class="c24"/>
<path d="M 725, 600c -2,2 -3,3 -5,5z" class="c19"/>
<path d="M 725, 700c -2,2 -3,3 -5,5z" class="c18"/>
<path d="M 735, 180c -2,2 -3,3 -5,5z" class="c12"/>
<path d="M 735, 580c -2,2 -3,3 -5,5z" class="c13"/>
<path d="M 735, 610c -2,2 -3,3 -5,5z" class="c17"/>
<path d="M 735, 690c -2,2 -3,3 -5,5z" class="c12"/>
<path d="M 745, 180c -2,2 -3,3 -5,5z" class="c22"/>
<path d="M 745, 590c -2,2 -3,3 -5,5z" class="c16"/>
<path d="M 745, 620c -2,2 -3,3 -5,5z" class="c13"/>
<path d="M 745, 690c -2,2 -3,3 -5,5z" class="c21"/>
<path d="M 755, 190c -2,2 -3,3 -5,5z" class="c15"/>
<path d="M 755, 600c -2,2 -3,3 -5,5z" class="c19"/>
<path d="M 755, 620c 9,18 13,14 -5,5z" class="c24"/>
<path d="M 755, 630c 9,18 13,14 -5,5z" class="c12"/>
<path d="M 755, 680c -2,2 -3,3 -5,5z" class="c14"/>
<path d="M 765, 190c -2,2 -3,3 -5,5z" class="c23"/>
<path d="M 765, 200c -2,2 -3,3 -5,5z" class="c10"/>
<path d="M 765, 610c -2,2 -3,3 -5,5z" class="c21"/>
<path d="M 765, 670c -2,2 -3,3 -5,5z" class="c11"/>
<path d="M 765, 680c 9,-18 36,-36 -5,5z" class="c24"/>
<path d="M 775, 200c -2,2 -3,3 -5,5z" class="c19"/>
<path d="M 775, 610c -2,2 -3,3 -5,5z" class="c10"/>
<path d="M 775, 620c -2,2 -3,3 -5,5z" class="c23"/>
<path d="M 775, 650c -2,2 -3,3 -5,5z" class="c21"/>
<path d="M 775, 660c -2,2 -3,3 -5,5z" class="c19"/>
<path d="M 785, 210c -2,2 -3,3 -5,5z" class="c16"/>
<path d="M 785, 620c -2,2 -3,3 -5,5z" class="c11"/>
<path d="M 785, 630c -2,2 -3,3 -5,5z" class="c21"/>
<path d="M 795, 220c -2,2 -3,3 -5,5z" class="c18"/>
<path d="M 795, 640c -2,2 -3,3 -5,5z" class="c11"/>
<path d="M 795, 650c -2,2 -3,3 -5,5z" class="c19"/>
<path d="M 805, 230c -2,2 -3,3 -5,5z" class="c23"/>
<path d="M 805, 240c -2,2 -3,3 -5,5z" class="c17"/>
<path d="M 805, 250c -2,2 -3,3 -5,5z" class="c12"/>
<path d="M 805, 260c -2,2 -3,3 -5,5z" class="c10"/>
<path d="M 805, 610c -2,2 -3,3 -5,5z" class="c10"/>
<path d="M 805, 620c -2,2 -3,3 -5,5z" class="c11"/>
<path d="M 805, 630c -2,2 -3,3 -5,5z" class="c17"/>
<path d="M 805, 640c -2,2 -3,3 -5,5z" class="c23"/>
<path d="M 815, 270c 0,97 0,193 0,290c 0,4 -2,48 -5,45c -4,-4 0,-222 0,-330z" class="c24"/>
</g>
</svg>